# xmcd
#
# Track frame offsets:
#	150
#	19382
#	34087
#	52702
#
# Disc length: 1050 seconds
#
# Revision: 0
# Processed by: cddbd v1.5.1PL0 Copyright (c) Steve Scherf et al.
# Submitted via: dBpowerAMP V4.0
#
DISCID=27041804
DTITLE=The Rockingbirds - Gradually Learning [CD single)
DYEAR=1900
DGENRE=
TTITLE0=Gradually Learning
TTITLE1=Where I Belong
TTITLE2=Love Has Gone and Made a Mess Of Me
TTITLE3=Gradually Learning (full version)
EXTD=
EXTT0=
EXTT1=
EXTT2=
EXTT3=
PLAYORDER=
